<svg width="36" height="37" viewBox="0 0 36 37" fill="none" xmlns="http://www.w3.org/2000/svg">
<g clip-path="url(#clip0_386_1283)">
<path d="M30.5918 26.7251C30.216 26.9447 29.7535 26.9447 29.3776 26.7251L26.4917 25.0393C26.291 25.2857 26.0475 25.4981 25.7664 25.6621L17.5253 30.4782C16.6971 30.9618 15.6764 30.9618 14.8482 30.4782L6.60713 25.6621C5.77895 25.1785 5.26859 24.2835 5.26859 23.3154V13.6831C5.26859 12.7149 5.77895 11.821 6.60713 11.3364L14.8482 6.52024C15.6764 6.03667 16.6971 6.03667 17.5253 6.52024L25.7664 11.3364C26.0475 11.5003 26.291 11.7137 26.4917 11.9591L29.3776 10.2733C29.7535 10.0537 30.216 10.0537 30.5918 10.2733L32.3745 11.3147V10.6033C32.3745 9.6351 31.8642 8.74117 31.036 8.25656L17.5263 0.362679C16.6981 -0.120893 15.6774 -0.120893 14.8492 0.362679L1.33854 8.25759C0.510357 8.7422 0 9.63614 0 10.6043V26.3952C0 27.3633 0.510357 28.2573 1.33854 28.7419L14.8492 36.6368C15.6774 37.1204 16.6981 37.1204 17.5263 36.6368L31.037 28.7419C31.8652 28.2583 32.3755 27.3633 32.3755 26.3952V25.6837L30.5929 26.7251H30.5918Z" fill="#6758A6"/>
<path d="M35.4917 14.6116L30.3617 11.6132C30.0469 11.4297 29.6598 11.4297 29.345 11.6132L24.215 14.6116C23.9002 14.7951 23.7067 15.1354 23.7067 15.5024V21.4981C23.7067 21.8652 23.9002 22.2054 24.215 22.389L29.345 25.3873C29.6598 25.5708 30.0469 25.5708 30.3617 25.3873L35.4917 22.389C35.8065 22.2054 36 21.8652 36 21.4981V15.5024C36 15.1354 35.8065 14.7951 35.4917 14.6116V14.6116Z" fill="#31C2DB"/>
<path d="M23.2218 23.0845C22.851 22.868 22.6228 22.4669 22.6228 22.0338V14.9648C22.6228 14.5318 22.851 14.1307 23.2218 13.9141L24.8129 12.9841C24.6082 12.7253 24.3596 12.5005 24.0673 12.3304L17.5253 8.50721C16.6971 8.02364 15.6764 8.02364 14.8482 8.50721L8.30631 12.3304C7.47813 12.814 6.96777 13.709 6.96777 14.6771V22.3225C6.96777 23.2907 7.47813 24.1846 8.30631 24.6693L14.8482 28.4925C15.6764 28.976 16.6971 28.976 17.5253 28.4925L24.0673 24.6693C24.3596 24.4981 24.6082 24.2733 24.8129 24.0156L23.2218 23.0855V23.0845Z" fill="#36377F"/>
</g>
<defs>
<clipPath id="clip0_386_1283">
<rect width="36" height="37" fill="white"/>
</clipPath>
</defs>
</svg>
