<svg width="24" height="24" viewBox="0 0 24 24" fill="none" xmlns="http://www.w3.org/2000/svg">
<path d="M7.5 0H1.5C0.65625 0 0 0.703125 0 1.5V19.5C0 21.9844 2.01562 24 4.5 24C6.9375 24 9 21.9844 9 19.5V1.5C9 0.703125 8.29688 0 7.5 0ZM4.5 20.625C3.84375 20.625 3.375 20.1562 3.375 19.5C3.375 18.8906 3.84375 18.375 4.5 18.375C5.10938 18.375 5.625 18.8906 5.625 19.5C5.625 20.1562 5.10938 20.625 4.5 20.625ZM6 12H3V9H6V12ZM6 6H3V3H6V6Z" fill="#07282B"/>
<path d="M3 12H6V9H3V12ZM20.3438 7.875L16.125 3.65625C15.8438 3.375 15.4688 3.23438 15.0469 3.23438C14.6719 3.23438 14.2969 3.375 14.0156 3.65625L10.5 7.17188V19.875L20.3438 9.98438C20.625 9.75 20.8125 9.375 20.8125 8.95312C20.8125 8.53125 20.625 8.15625 20.3438 7.875ZM3 6H6V3H3V6ZM22.5 15H17.4844L8.71875 23.7656C8.625 23.8594 8.53125 23.9531 8.4375 24H22.5C23.2969 24 24 23.3438 24 22.5V16.5C24 15.7031 23.2969 15 22.5 15Z" fill="#30F0FF"/>
</svg>
