<svg width="16" height="25" fill="none" xmlns="http://www.w3.org/2000/svg">
  <path fill-rule="evenodd" clip-rule="evenodd" d="M16 5.7c0-.5-.2-1-.5-1.4l-.2-.2-.2-.2-.3-.2L9.2.3a2.3 2.3 0 0 0-2.4 0L1.2 3.7l-.3.1-.2.2-.2.3c-.3.4-.5.9-.5 1.4v6.8c0 .5.2 1 .5 1.4a2.2 2.2 0 0 0 .2.2 2.2 2.2 0 0 0 .5.4L6.8 18a2.3 2.3 0 0 0 2.4 0l5.6-3.4.3-.2a2.2 2.2 0 0 0 .2-.2l.2-.2c.3-.4.5-.9.5-1.4V5.7Z" fill="#0D2138"/>
  <path fill-rule="evenodd" clip-rule="evenodd" d="M0 18.6v-2.3l.2.2L6 19.8a4.1 4.1 0 0 0 4.2 0l5.7-3.3.2-.2v2.3c0 .5-.2 1-.5 1.4l-.2.2-.2.2-.3.2L9.2 24a2.3 2.3 0 0 1-2.4 0l-5.6-3.4c-.1 0-.2 0-.3-.2a2.2 2.2 0 0 1-.2-.2L.5 20c-.3-.4-.5-.9-.5-1.4Z" fill="#3B99FC"/>
</svg>
