<svg width="24" height="24" viewBox="0 0 24 24" fill="none" xmlns="http://www.w3.org/2000/svg">
<path d="M24 16C24 15.2031 23.2969 14.5 22.5 14.5H15C14.1562 14.5 13.5 15.2031 13.5 16V23.5C13.5 24.3438 14.1562 25 15 25H22.5C23.2969 25 24 24.3438 24 23.5V16Z" fill="#30F0FF"/>
<path d="M6 13C2.67188 13 0 15.7188 0 19C0 22.3281 2.67188 25 6 25C9.28125 25 12 22.3281 12 19C12 15.7188 9.28125 13 6 13ZM23.7656 9.25L19.3125 1.75C18.7031 0.765625 17.25 0.765625 16.6406 1.75L12.1875 9.25C11.5781 10.2812 12.3281 11.5 13.5469 11.5H22.4531C23.625 11.5 24.375 10.2812 23.7656 9.25Z" fill="#07282B"/>
</svg>
