<svg width="46" height="52" viewBox="0 0 46 52" fill="none" xmlns="http://www.w3.org/2000/svg"><path fill-rule="evenodd" clip-rule="evenodd" d="M43.4257 14.0467L23.4231 2.49828C23.2785 2.41477 23.1003 2.41477 22.9556 2.49828L2.95309 14.0467C2.80845 14.1303 2.71934 14.2846 2.71934 14.4516V37.5486C2.71934 37.7156 2.80845 37.8699 2.95309 37.9534L22.9556 49.5019C23.1003 49.5854 23.2785 49.5854 23.4231 49.5019L43.4257 37.9534C43.5703 37.8699 43.6594 37.7156 43.6594 37.5486V14.4516C43.6594 14.2846 43.5703 14.1303 43.4257 14.0467ZM24.5919 0.473944C23.724 -0.0271218 22.6547 -0.027122 21.7869 0.473944L1.78434 12.0224C0.916467 12.5235 0.381836 13.4495 0.381836 14.4516V37.5486C0.381836 38.5507 0.916467 39.4767 1.78434 39.9778L21.7869 51.5262C22.6547 52.0273 23.724 52.0273 24.5919 51.5262L44.5944 39.9778C45.4623 39.4767 45.9969 38.5507 45.9969 37.5486V14.4516C45.9969 13.4495 45.4623 12.5235 44.5944 12.0224L24.5919 0.473944Z" fill="var(--logo-color, black)"></path><path d="M29.0704 13.3125V27.9248L16.4989 13.3125H11.6582V37.3798H17.4382V22.7675L30.0457 37.3798H34.8503V13.3125H29.0704Z" fill="var(--logo-color, black)"></path><circle cx="38.1492" cy="36.2851" r="1.55834" fill="var(--logo-color, black)"></circle></svg>