<svg width="31" height="24" fill="none" xmlns="http://www.w3.org/2000/svg">
  <path d="M28 18c-.7 0-1.3.2-1.8.6L21.7 16c.2-.5.3-1 .3-1.7a5.3 5.3 0 0 0-6.4-5l-2-4.1c.6-.6.9-1.3.9-2a3 3 0 0 0-3-3 3 3 0 0 0-3 3 3 3 0 0 0 3 3V6h.1l2 4.1a5.3 5.3 0 0 0 3.1 9.4c1.5 0 2.9-.6 3.8-1.6l4.5 2.7v.4a3 3 0 0 0 3 3 3 3 0 1 0 0-6Zm-11.3-1.5c-1.2 0-2.2-1-2.2-2.3a2.3 2.3 0 0 1 4.5 0c0 1.3-1 2.3-2.3 2.3Z" fill="#EC8924"/>
  <path d="M3.5 11.3a3 3 0 0 0-3 3 3 3 0 0 0 3 3 3 3 0 0 0 3-3 3 3 0 0 0-3-3ZM7.6 15H10v-1.5H7.6V15Zm13.8-5 1 1.2 2.2-1.7-1-1.2-2.2 1.7Zm6.1-7a3 3 0 0 0-3 3 3 3 0 0 0 3 3 3 3 0 0 0 3-3 3 3 0 0 0-3-3Z" fill="#3F2922"/>
</svg>
