<svg width="24" height="24" viewBox="0 0 24 24" fill="none" xmlns="http://www.w3.org/2000/svg">
<path d="M24.3906 17.1094L21.6719 15.8438L14.0781 19.2656C13.75 19.4062 13.375 19.5 13 19.5C12.5781 19.5 12.2031 19.4062 11.875 19.2656L4.32812 15.8438L1.5625 17.1094C0.765625 17.4375 0.765625 18.6094 1.5625 18.9844L12.4844 23.9062C12.625 24 12.8125 24 12.9531 24C13.1406 24 13.3281 24 13.4688 23.9062L24.3906 18.9844C25.1875 18.6094 25.1875 17.4375 24.3906 17.1094ZM15.25 6.75H18.25V9.75C18.25 10.1719 18.5781 10.5 19 10.5H20.5C20.875 10.5 21.25 10.1719 21.25 9.75V6.75H24.25C24.625 6.75 25 6.42188 25 6V4.5C25 4.125 24.625 3.75 24.25 3.75H21.25V0.75C21.25 0.375 20.875 0 20.5 0H19C18.5781 0 18.25 0.375 18.25 0.75V3.75H15.25C14.8281 3.75 14.5 4.125 14.5 4.5V6C14.5 6.42188 14.8281 6.75 15.25 6.75Z" fill="#07282B"/>
<path d="M19.75 13.5C15.625 13.5 12.2031 10.5 11.5938 6.51562L1.5625 11.0625C0.765625 11.4375 0.765625 12.6094 1.5625 12.9375L12.4844 17.9062C12.625 17.9531 12.8125 18 13 18C13.1406 18 13.3281 17.9531 13.4688 17.9062L22 14.0625V13.1719C21.25 13.4062 20.5 13.5 19.75 13.5Z" fill="#30F0FF"/>
</svg>
