<svg width="32" height="34" fill="none" xmlns="http://www.w3.org/2000/svg"><path fill-rule="evenodd" clip-rule="evenodd" d="M4.775 4.265V19.83a4.72 4.72 0 0 0 1.342 3.296l.011.012.012.011a2.695 2.695 0 0 0 .045.045c.133.131.266.246.392.345l.003.003.007.005.03.024c.133.102.3.222.498.337l.003.001 6.392 3.69a4.708 4.708 0 0 0 4.708.002l6.394-3.692.002-.002c.201-.116.37-.238.504-.341l.014-.011.008-.006a4.597 4.597 0 0 0 .484-.435c.089-.092.193-.206.299-.338a4.807 4.807 0 0 0 1.03-2.975v-5.25h.005v-2.33c0-.06-.002-.119-.004-.178V8.781h.004V6.452c0-.06-.002-.119-.004-.178V4.328l3.357 1.939c.607.35 1.039.923 1.217 1.582h.001c.06.22.09.448.09.682v15.237a2.614 2.614 0 0 1-1.307 2.264L17.117 33.65a2.617 2.617 0 0 1-2.615 0L1.307 26.032A2.614 2.614 0 0 1 0 23.768V8.531a2.614 2.614 0 0 1 1.307-2.264l3.468-2.002Z" fill="#3B99FC"/><path fill-rule="evenodd" clip-rule="evenodd" d="M24 5.737c0-.548-.187-1.069-.511-1.485h.002a2.231 2.231 0 0 0-.16-.183l-.014-.015a2.401 2.401 0 0 0-.215-.195l-.014-.01a2.265 2.265 0 0 0-.245-.173L17.165.32a2.285 2.285 0 0 0-2.33 0L9.157 3.676a2.27 2.27 0 0 0-.245.173l-.014.01a2.389 2.389 0 0 0-.215.195l-.015.015a2.59 2.59 0 0 0-.159.182h.002A2.418 2.418 0 0 0 8 5.737v6.715c0 .549.187 1.07.511 1.485h-.002a2.225 2.225 0 0 0 .174.198l.015.015a2.232 2.232 0 0 0 .212.19c.078.062.159.12.246.172l5.678 3.358a2.285 2.285 0 0 0 2.329 0l5.678-3.358c.086-.052.168-.11.246-.172l.012-.01a2.227 2.227 0 0 0 .212-.192l.017-.017c.056-.059.11-.12.16-.183h-.003c.325-.417.512-.937.512-1.486V5.737H24ZM8 19.264v-2.235c.068.047.142.095.222.143l.003.002 5.68 3.359a4.109 4.109 0 0 0 4.184 0h.001l5.682-3.36.002-.001c.08-.048.154-.096.223-.143v2.235c0 .548-.187 1.069-.512 1.485h.002c-.05.064-.103.125-.159.183l-.017.018a.221.221 0 0 0-.007.006l-.005.005a2.227 2.227 0 0 1-.2.18l-.012.01c-.078.062-.16.12-.246.172l-5.678 3.358a2.288 2.288 0 0 1-2.33 0l-5.677-3.358a2.266 2.266 0 0 1-.246-.172c-.004-.002-.008-.006-.012-.01a2.234 2.234 0 0 1-.23-.209 2.243 2.243 0 0 1-.159-.183h.002A2.413 2.413 0 0 1 8 19.264Z" fill="#0D2138"/></svg>
