<svg width="24" height="24" viewBox="0 0 24 24" fill="none" xmlns="http://www.w3.org/2000/svg">
<path d="M7.3125 6.46875L4.96875 5.53125L4.03125 3.1875C3.9375 3.09375 3.84375 3 3.75 3C3.60938 3 3.51562 3.09375 3.46875 3.1875L2.48438 5.53125L0.140625 6.46875C0.046875 6.5625 0 6.65625 0 6.75C0 6.89062 0.046875 6.98438 0.140625 7.03125L2.48438 8.01562L3.46875 10.3594C3.51562 10.4531 3.60938 10.5 3.70312 10.5C3.84375 10.5 3.9375 10.4531 3.98438 10.3594L4.96875 8.01562L7.3125 7.03125C7.40625 6.98438 7.45312 6.89062 7.45312 6.75C7.45312 6.65625 7.40625 6.5625 7.3125 6.46875ZM30 20.25C29.9531 20.1562 29.9062 20.0625 29.8125 19.9688L27.4688 19.0312L26.5312 16.6875C26.4375 16.5938 26.3438 16.5 26.25 16.5C26.1094 16.5 26.0156 16.5938 25.9688 16.6875L24.9844 19.0312L22.6406 19.9688C22.5469 20.0625 22.5 20.1562 22.5 20.25C22.5 20.3906 22.5469 20.4844 22.6406 20.5312L24.9844 21.5156L25.9688 23.8594C26.0156 23.9531 26.1094 24 26.2031 24C26.3438 24 26.4375 23.9531 26.4844 23.8594L27.4688 21.5156L29.8125 20.5312C29.9062 20.4844 29.9531 20.3906 29.9531 20.25H30Z" fill="#30F0FF"/>
<path d="M24 5.25C23.1562 5.29688 22.5 5.95312 22.5 6.75V10.125C22.5 10.3594 22.3125 10.5 22.125 10.5H21.375C21.1406 10.5 21 10.3594 21 10.125V3C21 2.20312 20.2969 1.5 19.5 1.5C18.6562 1.5 18 2.20312 18 3V10.125C18 10.3594 17.8125 10.5 17.625 10.5H16.875C16.6406 10.5 16.5 10.3594 16.5 10.125V1.5C16.5 0.703125 15.7969 0 15 0C14.1562 0 13.5 0.703125 13.5 1.5V10.125C13.5 10.3594 13.3125 10.5 13.125 10.5H12.375C12.1406 10.5 12 10.3594 12 10.125V3C12 2.20312 11.2969 1.5 10.5 1.5C9.65625 1.5 9 2.20312 9 3V14.2969L7.875 12.7969C7.54688 12.3281 6.98438 12.0469 6.375 12.0469C5.29688 12.0469 4.5 12.8438 4.5 13.9219C4.5 14.2969 4.59375 14.6719 4.82812 15L10.7344 23.1094C11.1562 23.6719 11.8125 24 12.5625 24H21.7969C22.6875 24 23.4844 23.4844 23.8125 22.6875L22.0781 21.9375L22.0312 21.8906H21.9844C21.375 21.6094 21 21 21 20.25C21 19.5469 21.375 18.9375 21.9844 18.6562L22.0312 18.6094H22.0781L23.8125 17.8594L24.5625 16.125V16.0781L24.6094 16.0312C24.7969 15.6562 25.0781 15.375 25.4531 15.2344C25.4531 15.1406 25.4531 15.0938 25.5 15.0469V6.75C25.4531 5.95312 24.7969 5.29688 24 5.25ZM16.3594 15.9375L15 16.5L14.3906 17.9062C14.3438 18 14.2969 18 14.25 18C14.1562 18 14.1094 18 14.0625 17.9062L13.5 16.5L12.0938 15.9375C12 15.8906 11.9531 15.8438 11.9531 15.75C11.9531 15.7031 12 15.6562 12.0938 15.6094L13.5 15L14.0625 13.6406C14.1094 13.5469 14.1562 13.5 14.2031 13.5C14.2969 13.5 14.3438 13.5469 14.3906 13.6406L15 15L16.3594 15.6094C16.4531 15.6562 16.5 15.7031 16.5 15.75C16.5 15.8438 16.4531 15.8906 16.3594 15.9375Z" fill="#07282B"/>
</svg>
