<svg width="36" height="37" viewBox="0 0 36 37" fill="none" xmlns="http://www.w3.org/2000/svg">
<g clip-path="url(#clip0_386_1280)">
<path d="M316.9 95.9904C315.11 89.3704 310.77 83.6104 304.67 80.0904L172.05 3.52043C163.92 -1.16957 153.9 -1.16957 145.77 3.52043L13.14 80.0904C7.04 83.6104 2.7 89.3704 0.91 95.9904C0.31 98.2004 0 100.5 0 102.85V256C0 258.35 0.31 260.65 0.91 262.86C2.7 269.48 7.04 275.24 13.14 278.76L145.77 355.33C153.9 360.02 163.92 360.02 172.05 355.33L304.68 278.76C310.78 275.24 315.12 269.48 316.91 262.86C317.51 260.65 317.82 258.35 317.82 256V102.85C317.82 100.5 317.51 98.2004 316.91 95.9904H316.9ZM172.04 295.59C163.91 300.28 153.89 300.28 145.76 295.59L64.86 248.88C63.97 248.37 63.13 247.78 62.32 247.18C62.07 246.99 61.83 246.8 61.59 246.61C60.97 246.12 60.39 245.59 59.82 245.05C59.6 244.83 59.37 244.63 59.15 244.4C54.46 239.56 51.72 233.04 51.72 226.12V132.7C51.72 125.78 54.46 119.25 59.15 114.42C59.36 114.2 59.59 113.99 59.82 113.77C60.39 113.23 60.97 112.71 61.59 112.21C61.83 112.02 62.07 111.83 62.32 111.64C63.13 111.03 63.97 110.45 64.86 109.94L145.76 63.2304C153.89 58.5404 163.91 58.5404 172.04 63.2304L252.94 109.94C253.83 110.45 254.67 111.04 255.48 111.64C255.73 111.83 255.97 112.02 256.21 112.21C256.82 112.7 257.41 113.22 257.98 113.76C258.21 113.98 258.44 114.19 258.65 114.42C263.34 119.26 266.08 125.78 266.08 132.7V226.12C266.08 233.04 263.34 239.56 258.65 244.4C258.43 244.63 258.2 244.84 257.98 245.06C257.42 245.6 256.83 246.12 256.21 246.61C255.97 246.8 255.73 246.99 255.48 247.18C254.67 247.79 253.83 248.37 252.94 248.88L172.04 295.59V295.59Z" fill="#EB8A23"/>
<path d="M249.35 142.35C249.35 136.29 247.24 130.54 243.57 125.95H243.59C243.03 125.23 242.42 124.57 241.79 123.92C241.68 123.81 241.56 123.71 241.45 123.6C240.74 122.9 239.98 122.23 239.19 121.61C239.14 121.57 239.09 121.53 239.04 121.49C238.16 120.81 237.24 120.16 236.26 119.59L172.04 82.5102C167.97 80.1602 163.42 78.9902 158.87 78.9902C154.32 78.9902 149.78 80.1602 145.7 82.5102L81.48 119.59C80.5 120.16 79.58 120.81 78.7 121.49C78.65 121.53 78.6 121.57 78.55 121.61C77.76 122.23 77 122.9 76.29 123.6C76.18 123.71 76.06 123.81 75.95 123.92C75.32 124.57 74.72 125.23 74.15 125.94H74.17C70.5 130.54 68.39 136.29 68.39 142.35V216.5C68.39 222.56 70.5 228.31 74.17 232.9H74.15C74.71 233.62 75.32 234.28 75.95 234.93C76.06 235.04 76.17 235.14 76.28 235.25C76.99 235.96 77.75 236.62 78.54 237.24C78.59 237.28 78.64 237.32 78.68 237.35C79.56 238.03 80.48 238.68 81.46 239.25L145.68 276.33C149.75 278.68 154.3 279.85 158.85 279.85C163.4 279.85 167.94 278.68 172.02 276.33L236.24 239.25C237.22 238.68 238.14 238.03 239.02 237.35C239.07 237.31 239.12 237.27 239.16 237.24C239.96 236.62 240.71 235.95 241.42 235.25C241.53 235.14 241.65 235.04 241.75 234.93C242.38 234.28 242.99 233.61 243.55 232.91H243.53C247.2 228.31 249.31 222.56 249.31 216.5V142.35H249.35Z" fill="#402922"/>
</g>
<defs>
<clipPath id="clip0_386_1280">
<rect width="317.81" height="358.85" fill="white"/>
</clipPath>
</defs>
</svg>
