<svg width="24" height="24" fill="none" xmlns="http://www.w3.org/2000/svg">
  <path d="M19.6 9.3c.2-.2.3-.3.3-.5l-.3-.6-1-1A.7.7 0 0 0 18 7c-.2 0-.3 0-.5.2l-7 7-3.3-3.3-.5-.2c-.2 0-.4 0-.6.2l-1 1.1c-.2.1-.2.3-.2.5s0 .4.2.5l4.8 5 .6.1c.2 0 .4 0 .5-.2l8.6-8.6Z" fill="#0D2138"/>
  <path d="m21.8 4-9-3.8a2.7 2.7 0 0 0-1.7 0l-9 3.7C1.3 4.3.7 5.1.7 6c0 9.3 5.4 15.8 10.4 17.9a2.7 2.7 0 0 0 1.7 0c4-1.7 10.4-7.5 10.4-17.9 0-.9-.6-1.7-1.4-2Zm-2.2 5.3L11 17.9l-.5.2c-.2 0-.4 0-.6-.2L5.1 13a.7.7 0 0 1-.2-.5c0-.2 0-.4.2-.5l1-1 .6-.3c.2 0 .3 0 .5.2l3.3 3.3 7-7c.2-.2.3-.2.5-.2s.4 0 .6.2l1 1 .3.6c0 .2-.1.3-.3.5Z" fill="#3B99FC"/>
</svg>
