<svg width="26" height="26" fill="none" xmlns="http://www.w3.org/2000/svg">
  <path d="m19.7 10.6-.6.6-.2.5v.3c.3.7.4 1.6.5 2.4 0 .7.8 1 1.3.5l1.7-1.7a7.2 7.2 0 0 0 0-10 7.2 7.2 0 0 0-10 0l-3.2 3a7.1 7.1 0 0 0 1 11h.4l.5-.1 1-1c.3-.4.5-.9.5-1.4 0-.3-.1-.5-.3-.6l-.5-.4c-.6-.7-1-1.5-1-2.4 0-1 .4-1.8 1-2.4L15 5.7c.6-.6 1.4-1 2.4-1a3.4 3.4 0 0 1 2.3 5.9Z" fill="#3B99FC"/>
  <path d="M2.8 12.9a7.2 7.2 0 0 0 0 10 7.2 7.2 0 0 0 10 0l3.2-3.1a7 7 0 0 0-1-10.9.8.8 0 0 0-.4-.1 1 1 0 0 0-.5.2l-1 1a2 2 0 0 0-.5 1.3c0 .3 0 .5.3.7.2 0 .3.2.5.3.6.7 1 1.5 1 2.4 0 1-.4 1.8-1 2.4l-3.2 3.2c-.6.6-1.4 1-2.4 1a3.4 3.4 0 0 1-2.3-5.8l.6-.6.2-.5V14a7 7 0 0 1-.5-2.5c0-.6-.8-1-1.3-.5l-1.7 2Z" fill="#0D2138"/>
</svg>
