<svg width="25" height="24" fill="none" xmlns="http://www.w3.org/2000/svg">
  <path d="M24.7 5 20 .2c-.3-.2-.5-.3-.8-.3H19v5.3c0 .4.3.7.8.7H25v-.3c0-.3-.1-.5-.3-.8ZM13 12.7v-.4c0-.4-.2-.8-.4-1-.7-.7-.6-.6-1-1.6 0-.5-.4-.8-.9-1-1-.2-.8-.2-1.5-.9-.3-.2-.6-.4-1-.4h-.4c-.9.3-.8.3-1.7 0h-.4c-.3 0-.7.2-1 .4-.7.7-.5.7-1.5 1-.4 0-.8.4-1 .9-.2 1-.1.9-.8 1.6-.3.2-.4.6-.4 1v.3c.3 1 .3.8 0 1.8v.4c0 .4.1.7.4 1 .7.7.6.6.9 1.5.1.5.5.9 1 1l.7.3V24l3-1.5 3 1.5v-5.3l.7-.3c.5-.1.8-.5 1-1 .3-1 .2-.8.9-1.5.2-.3.4-.6.4-1v-.4c-.3-1-.3-.8 0-1.8Zm-6 3.7a3 3 0 0 1-3-3 3 3 0 0 1 3-3 3 3 0 0 1 3 3 3 3 0 0 1-3 3Z" fill="#0D2138"/>
  <path d="M25 6h-5.3a.7.7 0 0 1-.7-.8V0H8.1C7.5 0 7 .5 7 1.1v5.2l.3-.1h.2c.2-.2.5-.2.7-.2a3 3 0 0 1 2 .9l.2.1.2.3h.3l.2.1a2.8 2.8 0 0 1 2 2.2l.2.3.2.3.2.1a3 3 0 0 1 .7 2.8v.2l-.1.3v.4l.1.2.1.7c0 .8-.3 1.5-.8 2l-.2.2-.2.2-.1.3v.2c-.3.9-.9 1.6-1.7 2V24h12.4c.6 0 1-.5 1.1-1V6Z" fill="#3B99FC"/>
</svg>
