<svg width="25" height="24" fill="none" xmlns="http://www.w3.org/2000/svg">
  <path d="m23.9 17.1-2.7-1.3-7.6 3.5a2.8 2.8 0 0 1-2.2 0l-7.6-3.5-2.7 1.3c-.8.3-.8 1.5 0 1.9L12 24h1l10.9-5c.8-.4.8-1.6 0-1.9ZM14.8 6.7h3v3c0 .5.3.8.7.8H20c.4 0 .8-.3.8-.8v-3h3c.3 0 .7-.3.7-.7V4.5c0-.4-.4-.8-.8-.8h-3v-3c0-.3-.3-.7-.7-.7h-1.5c-.4 0-.8.4-.8.8v3h-3c-.4 0-.7.3-.7.7V6c0 .4.3.8.8.8Z" fill="#EC8924"/>
  <path d="M19.5 13.5c-4.1 0-7.6-3-8.2-7l-10 4.6c-.8.3-.8 1.5 0 1.8l11 5 .4.1h.5l8.5-4v-.8c-.7.2-1.5.3-2.2.3Z" fill="#3F2922"/>
</svg>
