<svg width="36" height="37" viewBox="0 0 19 20" fill="none" xmlns="http://www.w3.org/2000/svg">
<path fill-rule="evenodd" clip-rule="evenodd" d="M2.72884 3.0083L2.72884 4.47068L2.72884 4.65612L2.72884 4.7107L2.72884 4.96799L2.72884 7.76803L2.72884 7.95347L2.72884 8.34915L2.72884 8.60645L2.72884 11.6465L2.72884 11.9038C2.72884 12.5095 2.93278 13.0976 3.30779 13.5733C3.37895 13.6648 3.44842 13.7384 3.49522 13.7867L3.50171 13.7934L3.50831 13.8C3.51617 13.8078 3.52293 13.8144 3.52775 13.8191C3.53022 13.8215 3.53256 13.8237 3.53437 13.8254C3.61012 13.9005 3.68614 13.966 3.75822 14.0228L3.76016 14.0243L3.76406 14.0274C3.76733 14.03 3.77344 14.0348 3.78128 14.0408C3.85687 14.0991 3.95247 14.1676 4.0655 14.2334L4.06714 14.2343L7.71975 16.3433C8.13699 16.5842 8.60228 16.7034 9.06544 16.7034C9.52928 16.7034 9.99343 16.5839 10.41 16.3439L10.4106 16.3436L14.0637 14.2343L14.0654 14.2334C14.1802 14.1666 14.277 14.0969 14.3532 14.038L14.3611 14.0319L14.3654 14.0285C14.449 13.9635 14.5231 13.8971 14.5883 13.8334C14.5936 13.8285 14.6016 13.8209 14.6107 13.8119C14.6192 13.8036 14.6299 13.7928 14.6422 13.7799C14.6929 13.7273 14.7526 13.6622 14.813 13.5867C15.1945 13.1023 15.402 12.5036 15.402 11.887L15.402 11.6471L15.402 8.88639L15.4043 8.88639L15.4043 7.95404L15.4043 7.55543C15.4043 7.52145 15.4035 7.48754 15.402 7.45372L15.402 5.58904L15.4043 5.58904L15.4043 4.65669L15.4043 4.25808C15.4043 4.2241 15.4035 4.19019 15.402 4.15637L15.402 3.04465L17.3208 4.15245C17.6675 4.35256 17.9143 4.68002 18.016 5.05638L18.0166 5.05638C18.0507 5.18202 18.0683 5.31277 18.0683 5.44637L18.0683 14.1531C18.0683 14.2867 18.0507 14.4174 18.0166 14.5431C17.9148 14.9194 17.6681 15.2469 17.3213 15.447L9.78119 19.8001C9.31899 20.0667 8.74935 20.0667 8.28715 19.8001L0.74702 15.447C0.400229 15.2469 0.153496 14.9194 0.0517338 14.5431C0.017623 14.4174 -6.27487e-07 14.2867 -6.20054e-07 14.1531L-1.35645e-07 5.44637C-1.28212e-07 5.31277 0.0176235 5.18201 0.0517344 5.05637C0.153497 4.68002 0.40023 4.35256 0.74702 4.15245L2.72884 3.0083Z" fill="#159E3C"/>
<path fill-rule="evenodd" clip-rule="evenodd" d="M11.6428 0.000221105L11.0238 0.000220144C10.9417 0.000220143 10.863 0.0353402 10.8049 0.0978516C10.7469 0.160364 10.7142 0.245148 10.7142 0.333553L10.7142 1.33355L10.4047 1.33355C10.3226 1.33355 10.2439 1.36867 10.1859 1.43118C10.1278 1.4937 10.0952 1.57848 10.0952 1.66689L10.0952 4.00022L12.5714 4.00022L12.5714 1.66689C12.5714 1.57848 12.5388 1.4937 12.4807 1.43118C12.4227 1.36867 12.344 1.33355 12.2619 1.33355L11.9523 1.33355L11.9523 0.333553C11.9523 0.245149 11.9197 0.160364 11.8617 0.0978516C11.8036 0.0353402 11.7249 0.000221106 11.6428 0.000221105ZM7.8333 0.000220106L7.21425 0.000220099C7.13216 0.000220098 7.05343 0.0353392 6.99538 0.0978516C6.93734 0.160364 6.90472 0.245148 6.90472 0.333553L6.90472 1.33355L6.5952 1.33355C6.51311 1.33355 6.43438 1.36867 6.37634 1.43118C6.31829 1.4937 6.28568 1.57848 6.28568 1.66689L6.28568 4.00022L8.76187 4.00022L8.76187 1.66689C8.76187 1.57848 8.72926 1.4937 8.67121 1.43118C8.61316 1.36867 8.53443 1.33355 8.45234 1.33355L8.14282 1.33355L8.14282 0.333553C8.14282 0.245148 8.11021 0.160364 8.05216 0.0978516C7.99411 0.0353392 7.91539 0.000220107 7.8333 0.000220106ZM13.1428 6.29576L13.1428 11.9904C13.1428 12.627 12.6056 13.1431 11.9428 13.1431L6.34282 13.1431C5.68007 13.1431 5.14282 12.627 5.14282 11.9904L5.14282 6.29576C5.14282 5.65914 5.68007 5.14307 6.34282 5.14307L11.9428 5.14307C12.6056 5.14307 13.1428 5.65914 13.1428 6.29576ZM10.8571 10.3633L10.8571 7.92279C10.8571 7.64996 10.6269 7.42879 10.3428 7.42879L7.94282 7.42879C7.65878 7.42879 7.42853 7.64996 7.42853 7.92279L7.42853 10.3633C7.42853 10.6362 7.65878 10.8574 7.94282 10.8574L10.3428 10.8574C10.6269 10.8574 10.8571 10.6362 10.8571 10.3633Z" fill="#0D2138"/>
</svg>
